<svg xmlns="http://www.w3.org/2000/svg" width="224.742" height="122.175" viewBox="0 0 224.742 122.175"><g transform="translate(-67.629 -100.915)"><path d="M177.5,134.788a11.208,11.208,0,0,1,1.728,2.932h1.536a11.232,11.232,0,0,1,1.727-2.932,18.264,18.264,0,0,0,4.219-11.04l.011-.414-2.556-13.6a31.635,31.635,0,0,0-3.059-8.819h-2.22a31.636,31.636,0,0,0-3.059,8.819l-2.556,13.6.011.414a18.263,18.263,0,0,0,4.218,11.04Z" fill="#f6ffff"/><path d="M174,119.4l.007.018,0-.018Z" fill="#f6ffff"/><path d="M183.128,121.145a19.691,19.691,0,0,0-.507-4.437l-1.572-6.787a1.069,1.069,0,0,0-.221-.464h0a1.071,1.071,0,0,0-1.877.464L177.38,116.7a19.637,19.637,0,0,0-.508,4.441h6.256Z" fill="#2d0091"/><path d="M177.688,126.558l1.019,2.2a1.372,1.372,0,0,0,2.586,0l1.019-2.2a8.848,8.848,0,0,0,.816-3.71h-6.256a8.828,8.828,0,0,0,.816,3.71Z" fill="#2d0091"/><path d="M175.185,150.317h0a46.369,46.369,0,0,0-.554-21.979l-1.356-5-2.86,13.494Z" fill="#ff4d1d"/><path d="M184.815,150.317l4.77-13.489-2.86-13.494-1.356,5a46.357,46.357,0,0,0-.554,21.979Z" fill="#ff4d1d"/><path d="M162.136,129.508a7.949,7.949,0,0,0,8.556-6.172h0l-6.736-2.181h0a3.948,3.948,0,0,0-2.9.044l-15.964,6.582Z" fill="#ff4d1d"/><path d="M130.5,146.377l28.014-6.935a15.121,15.121,0,0,0,7.059-3.987l3.1-3.105,2.018-9.014Z" fill="#f6ffff"/><path d="M189.307,123.336h0a7.949,7.949,0,0,0,8.556,6.172l17.048-1.723L198.947,121.2a3.975,3.975,0,0,0-1.514-.3h0a3.953,3.953,0,0,0-1.389.255h0l-6.737,2.181Z" fill="#ff4d1d"/><path d="M229.5,146.377l-28.014-6.935a15.129,15.129,0,0,1-7.06-3.987l-3.1-3.1-2.018-9.014Z" fill="#f6ffff"/><path d="M121.179,213.6a3.184,3.184,0,0,1,3.409,2.325h1.937c-.5-2.681-2.464-4.153-5.346-4.153a5.659,5.659,0,1,0,0,11.314c2.882,0,4.851-1.473,5.346-4.153h-1.937a3.184,3.184,0,0,1-3.409,2.325,3.829,3.829,0,1,1,0-7.658Z" fill="#f6ffff"/><path d="M140.651,211.774a5.659,5.659,0,1,0,5.812,5.658,5.451,5.451,0,0,0-5.812-5.658Zm0,9.486a3.829,3.829,0,1,1,3.8-3.828,3.57,3.57,0,0,1-3.8,3.828Z" fill="#f6ffff"/><path d="M163.386,218.268c0,1.953-.932,2.992-3.023,2.992-2.109,0-3.039-1.039-3.039-2.992v-6.262h-2v6.246c0,3.085,1.565,4.836,5.038,4.836,3.457,0,5.022-1.751,5.022-4.836v-6.246h-2Z" fill="#f6ffff"/><path d="M185,215.727c0-2.109-1.178-3.721-4.077-3.721h-5.936v10.85h2v-3.425h4.231l1.891,3.425h2.015l-2.109-3.8A3.342,3.342,0,0,0,185,215.727Zm-4.355,1.937h-3.658v-3.891h3.658c1.565,0,2.37.558,2.37,1.954s-.8,1.937-2.366,1.937Z" fill="#f6ffff"/><path d="M200.927,216.548l-1.735-.155c-1.4-.14-2.139-.5-2.139-1.458,0-1.039.883-1.518,2.7-1.518,1.626,0,2.635.387,2.9,1.612H204.5c-.172-2.775-2.449-3.255-4.65-3.255-3.4,0-4.806,1.162-4.806,3.161,0,1.937,1.287,2.868,3.736,3.1l1.752.154c1.456.14,2.122.481,2.122,1.52,0,1.256-1.068,1.735-2.912,1.735-1.583,0-2.791-.341-3.04-1.612h-1.844c.186,2.868,2.682,3.255,4.712,3.255h.015c3.642,0,5.1-1.256,5.1-3.41C204.678,217.632,203.437,216.78,200.927,216.548Z" fill="#f6ffff"/><path d="M214.9,222.856h9.145V221.1H216.9V218.3h6.836v-1.58H216.9v-2.961h7.146v-1.752H214.9Z" fill="#f6ffff"/><path d="M240.337,216.548l-1.737-.155c-1.394-.14-2.138-.5-2.138-1.458,0-1.039.884-1.518,2.7-1.518,1.628,0,2.635.387,2.9,1.612H243.9c-.17-2.775-2.449-3.255-4.65-3.255-3.394,0-4.8,1.162-4.8,3.161,0,1.937,1.286,2.868,3.736,3.1l1.752.154c1.456.14,2.124.481,2.124,1.52,0,1.256-1.071,1.735-2.916,1.735-1.58,0-2.789-.341-3.037-1.612h-1.845c.186,2.868,2.681,3.255,4.713,3.255h.015c3.643,0,5.1-1.256,5.1-3.41C244.088,217.632,242.849,216.78,240.337,216.548Z" fill="#f6ffff"/><path d="M234.115,199.427q-.059-19.389-.114-38.777h-12.97q.048,19,.1,37.992Q227.956,198.989,234.115,199.427Z" fill="#f6ffff"/><path d="M193.771,170.417c4.179.024,5.321,1.415,5.326,4.594,0,3.02-1.2,4.374-5.316,4.328-7-.077-10.493-.091-17.488-.071v6.047c6.866,4.92,10.437,7.485,17.075,12.422q8.717.133,16.651.423c-5.464-4.2-8.508-6.458-14.268-10.659l.767.014c8.876.169,15.455-3.6,15.435-12.3-.021-9.028-3.829-14.563-15.47-14.563H176.108v9.73C183.171,170.369,186.7,170.376,193.771,170.417Z" fill="#f6ffff"/><path d="M251.9,183.914c3.441,1.6,5.161,2.428,8.6,4.132,2.465,1.226,3.412,2.109,3.413,2.9v.544c0,.606-.25,1.124-2.46.907-6.915-.679-10.378-.983-17.306-1.517.011,3.793.016,5.9.026,9.336,11.016.956,20.115,2.061,27.33,3.1,3.476-.987,5.4-3.37,5.4-7.868v-3.86c0-5.632-2.963-9.334-8.837-12.21-3.411-1.659-5.119-2.462-8.534-4.025C257.567,174.43,257,174,257,173.285v-.533c0-.652.314-1.117,2.21-1.055,7.081.237,10.62.368,17.7.658v-11.7H259.5c-10.25,0-15.432,2.291-15.413,9.5,0,1.237,0,1.855.008,3.09C244.108,177.425,245.637,180.992,251.9,183.914Z" fill="#f6ffff"/><path d="M93.212,202.666c6.2-.822,13.549-1.656,22.047-2.4.01-3.437.016-5.546.025-9.342-4.577.356-6.864.55-11.436.969-5.872.539-7.886-1.784-7.875-9.422.01-7.576,1.469-10.666,7.917-10.873,4.578-.146,6.867-.214,11.446-.339.011-4.243.017-6.364.029-10.607H102.648c-14.3-.543-19.508,9.889-19.548,22.777C83.07,192.844,86.058,200.356,93.212,202.666Z" fill="#f6ffff"/><path d="M138.3,198.671c.014-4.975.022-7.741.036-12.984,6.383-.277,9.576-.389,15.964-.561-.009,5.194-.015,7.9-.026,12.893q6.271-.191,13-.291.021-18.538.037-37.078h-12.97c-.013,5.845-.018,8.767-.029,14.612-6.383.1-9.574.169-15.956.334.016-5.978.024-8.967.042-14.946H125.427q-.058,19.408-.111,38.816Q131.471,199.028,138.3,198.671Z" fill="#f6ffff"/><path d="M67.629,207.117a1063.016,1063.016,0,0,1,224.742,0S255.683,197.636,180,197.636,67.629,207.117,67.629,207.117Z" fill="#00c1c6"/></g></svg>